<svg width="131" height="44" viewBox="0 0 131 44" fill="none" xmlns="http://www.w3.org/2000/svg">
<path d="M6.176 33.48C5.13067 33.48 4.192 33.352 3.36 33.096C2.528 32.8613 1.76 32.5627 1.056 32.2L1.088 28.392H1.408L2.496 30.312C2.96533 31.1653 3.47733 31.8053 4.032 32.232C4.608 32.6373 5.33333 32.84 6.208 32.84C7.232 32.84 8.05333 32.616 8.672 32.168C9.312 31.6987 9.632 31.08 9.632 30.312C9.632 29.608 9.408 29.032 8.96 28.584C8.512 28.136 7.68 27.7307 6.464 27.368L5.12 26.952C3.81867 26.568 2.79467 25.9707 2.048 25.16C1.30133 24.3493 0.928 23.3573 0.928 22.184C0.928 20.776 1.48267 19.5813 2.592 18.6C3.70133 17.6187 5.29067 17.128 7.36 17.128C8.192 17.128 8.97067 17.224 9.696 17.416C10.4427 17.5867 11.1573 17.8533 11.84 18.216L11.648 21.672H11.328L10.208 19.688C9.80267 18.984 9.39733 18.4933 8.992 18.216C8.608 17.9173 8.02133 17.768 7.232 17.768C6.50667 17.768 5.824 17.9707 5.184 18.376C4.544 18.7813 4.224 19.3573 4.224 20.104C4.224 20.8293 4.49067 21.4053 5.024 21.832C5.57867 22.2587 6.38933 22.6533 7.456 23.016L8.896 23.432C10.432 23.9013 11.5307 24.552 12.192 25.384C12.8533 26.1947 13.184 27.176 13.184 28.328C13.184 29.8853 12.5653 31.1333 11.328 32.072C10.112 33.0107 8.39467 33.48 6.176 33.48ZM14.1415 33V32.68L14.6215 32.52C15.3468 32.2853 15.7095 31.7627 15.7095 30.952V13.832C15.7095 13.4053 15.6242 13.0853 15.4535 12.872C15.2828 12.6587 14.9842 12.488 14.5575 12.36L14.1415 12.264V11.944L19.9975 10.568L20.3815 10.856L20.2855 15.336V30.952C20.2855 31.8053 20.6375 32.3387 21.3415 32.552L21.7895 32.68V33H14.1415ZM26.0135 33L20.3175 25L26.2375 19.528C26.5148 19.272 26.6748 19.0053 26.7175 18.728C26.7815 18.4293 26.6002 18.216 26.1735 18.088L25.6295 17.928V17.608H30.3975V17.928L29.4375 18.184C28.9682 18.3333 28.5842 18.5147 28.2855 18.728C28.0082 18.92 27.6668 19.1973 27.2615 19.56L23.6775 22.92L29.4055 30.888C29.7468 31.3573 30.0668 31.72 30.3655 31.976C30.6642 32.232 31.0482 32.4453 31.5175 32.616L31.6455 32.68V33H26.0135ZM40.1095 17.128C41.4962 17.128 42.6802 17.416 43.6615 17.992C44.6428 18.5467 45.3895 19.3147 45.9015 20.296C46.4348 21.256 46.7015 22.3547 46.7015 23.592C46.7015 23.8267 46.6908 24.072 46.6695 24.328C46.6482 24.5627 46.6055 24.776 46.5415 24.968H37.0055C37.0268 27.272 37.4322 28.936 38.2215 29.96C39.0322 30.9627 40.2268 31.464 41.8055 31.464C42.8722 31.464 43.7362 31.2933 44.3975 30.952C45.0588 30.6107 45.6775 30.1093 46.2535 29.448L46.5735 29.736C45.9122 30.9093 45.0268 31.8267 43.9175 32.488C42.8295 33.1493 41.5175 33.48 39.9815 33.48C38.4668 33.48 37.1228 33.16 35.9495 32.52C34.7762 31.8587 33.8588 30.92 33.1975 29.704C32.5362 28.488 32.2055 27.0373 32.2055 25.352C32.2055 23.6027 32.5895 22.12 33.3575 20.904C34.1255 19.6667 35.1068 18.728 36.3015 18.088C37.5175 17.448 38.7868 17.128 40.1095 17.128ZM40.0135 17.768C39.3948 17.768 38.8615 17.96 38.4135 18.344C37.9868 18.7067 37.6455 19.368 37.3895 20.328C37.1548 21.2667 37.0268 22.6 37.0055 24.328H42.4775C42.6908 22.0027 42.6055 20.328 42.2215 19.304C41.8375 18.28 41.1015 17.768 40.0135 17.768ZM48.2353 33V32.68L48.6513 32.584C49.0566 32.4773 49.3766 32.296 49.6113 32.04C49.8459 31.7627 49.9633 31.4107 49.9633 30.984C49.9633 30.1947 49.9633 29.416 49.9633 28.648C49.9846 27.8587 49.9953 27.0693 49.9953 26.28V18.248H48.2033V17.896L48.9073 17.768C49.3339 17.7253 49.6433 17.576 49.8353 17.32C50.0273 17.064 50.1659 16.712 50.2513 16.264C50.4646 15.432 50.7739 14.7067 51.1793 14.088C51.6059 13.448 52.0859 12.8613 52.6193 12.328C53.4299 11.56 54.2833 11.0267 55.1793 10.728C56.0966 10.408 56.9926 10.248 57.8673 10.248C58.7206 10.248 59.4993 10.4293 60.2033 10.792C60.9073 11.1333 61.2593 11.7093 61.2593 12.52C61.2593 13.096 61.0886 13.5547 60.7473 13.896C60.4059 14.216 59.9259 14.376 59.3073 14.376C58.7953 14.376 58.3259 14.2373 57.8993 13.96C57.4726 13.6827 57.0566 13.192 56.6513 12.488L56.2033 11.944C55.9686 11.6453 55.7339 11.5067 55.4993 11.528C55.2646 11.528 55.0939 11.6987 54.9873 12.04C54.8379 12.7867 54.7206 13.6613 54.6353 14.664C54.5713 15.6667 54.5393 16.648 54.5393 17.608H58.1233V18.248H54.5393V30.92C54.5393 31.7307 54.9659 32.2533 55.8193 32.488L56.6193 32.68V33H48.2353Z" fill="#8B2BBF"/>
<path d="M65.22 33.48C63.8547 33.48 62.788 33.1387 62.02 32.456C61.2733 31.7733 60.9 30.6853 60.9 29.192V18.248H58.692V17.928L59.46 17.8C60.1213 17.6507 60.6867 17.4373 61.156 17.16C61.6467 16.8827 62.1267 16.5093 62.596 16.04L65.22 13.128H65.54L65.444 17.608H69.028V18.248H65.412V29.768C65.412 30.5147 65.572 31.08 65.892 31.464C66.2333 31.848 66.66 32.04 67.172 32.04C67.62 32.04 68.0147 31.9333 68.356 31.72C68.6973 31.4853 69.0387 31.176 69.38 30.792L69.7 31.112C69.2733 31.8373 68.6867 32.4133 67.94 32.84C67.1933 33.2667 66.2867 33.48 65.22 33.48ZM78.7048 33.48C77.0834 33.48 75.6754 33.1493 74.4808 32.488C73.2861 31.8053 72.3581 30.8453 71.6968 29.608C71.0568 28.3707 70.7368 26.92 70.7368 25.256C70.7368 23.592 71.0781 22.152 71.7608 20.936C72.4648 19.72 73.4141 18.7813 74.6088 18.12C75.8248 17.4587 77.1901 17.128 78.7048 17.128C80.2194 17.128 81.5741 17.4587 82.7688 18.12C83.9634 18.76 84.9021 19.688 85.5848 20.904C86.2888 22.12 86.6408 23.5707 86.6408 25.256C86.6408 26.9413 86.3101 28.4027 85.6488 29.64C85.0088 30.856 84.0914 31.8053 82.8968 32.488C81.7234 33.1493 80.3261 33.48 78.7048 33.48ZM78.7048 32.84C79.4514 32.84 80.0488 32.6267 80.4968 32.2C80.9448 31.7733 81.2648 31.016 81.4568 29.928C81.6701 28.84 81.7768 27.304 81.7768 25.32C81.7768 23.3147 81.6701 21.768 81.4568 20.68C81.2648 19.592 80.9448 18.8347 80.4968 18.408C80.0488 17.9813 79.4514 17.768 78.7048 17.768C77.9581 17.768 77.3501 17.9813 76.8808 18.408C76.4328 18.8347 76.1021 19.592 75.8888 20.68C75.6968 21.768 75.6008 23.3147 75.6008 25.32C75.6008 27.304 75.6968 28.84 75.8888 29.928C76.1021 31.016 76.4328 31.7733 76.8808 32.2C77.3501 32.6267 77.9581 32.84 78.7048 32.84ZM76.8488 14.664C77.1474 14.1093 77.4888 13.4907 77.8728 12.808C78.2568 12.104 78.7154 11.2507 79.2488 10.248C79.6114 9.56533 79.9634 9.07467 80.3048 8.776C80.6461 8.456 81.0408 8.296 81.4888 8.296C81.8941 8.296 82.2461 8.43467 82.5448 8.712C82.8434 8.968 82.9928 9.288 82.9928 9.672C82.9928 10.0773 82.8541 10.4613 82.5768 10.824C82.2994 11.1653 81.8301 11.5707 81.1688 12.04C80.2514 12.68 79.4834 13.2453 78.8648 13.736C78.2461 14.2053 77.6914 14.6213 77.2008 14.984L76.8488 14.664Z" fill="#2563EB"/>
<rect x="91" y="8" width="40" height="8" fill="#C14FFF"/>
<rect x="91" y="18" width="30" height="8" fill="#2563EB"/>
<rect x="91" y="28" width="20" height="8" fill="#0B1F3A"/>
</svg>
